<svg xmlns="http://www.w3.org/2000/svg" viewBox="0 0 24 24">
  <path fill="currentColor" d="M19.14 12.94c.04-.31.06-.63.06-.94s-.02-.63-.06-.94l2.03-1.58a.5.5 0 0 0 .12-.64l-1.93-3.34a.5.5 0 0 0-.6-.22l-2.39.96a7.027 7.027 0 0 0-1.62-.94l-.36-2.54A.5.5 0 0 0 14.79 2h-5.58a.5.5 0 0 0-.49.43l-.36 2.54c-.59.24-1.14.55-1.62.94l-2.39-.96a.5.5 0 0 0-.6.22L2.83 8.78a.5.5 0 0 0 .12.64l2.03 1.58c-.04.31-.06.63-.06.94s.02.63.06.94l-2.03 1.58a.5.5 0 0 0-.12.64l1.93 3.34a.5.5 0 0 0 .6.22l2.39-.96c.48.39 1.03.7 1.62.94l.36 2.54a.5.5 0 0 0 .49.43h5.58a.5.5 0 0 0 .49-.43l.36-2.54c.59-.24 1.14-.55 1.62-.94l2.39.96a.5.5 0 0 0 .6-.22l1.93-3.34a.5.5 0 0 0-.12-.64l-2.03-1.58zM12 15.5a3.5 3.5 0 1 1 0-7 3.5 3.5 0 0 1 0 7z"/>
</svg>
